
<svg width="192" height="192" viewBox="0 0 192 192" xmlns="http://www.w3.org/2000/svg">
  <defs>
    <linearGradient id="trophy-bg" x1="0%" y1="0%" x2="100%" y2="100%">
      <stop offset="0%" style="stop-color:#f59e0b;stop-opacity:1" />
      <stop offset="100%" style="stop-color:#d97706;stop-opacity:1" />
    </linearGradient>
  </defs>
  
  <circle cx="96" cy="96" r="80" fill="url(#trophy-bg)"/>
  
  <!-- Trophy -->
  <path d="M70 60 L122 60 L122 80 C122 95 110 105 96 105 S70 95 70 80 Z" fill="white"/>
  <rect x="88" y="105" width="16" height="20" fill="white"/>
  <rect x="75" y="125" width="42" height="8" fill="white"/>
  
  <!-- Trophy handles -->
  <path d="M70 70 Q55 70 55 80 Q55 90 70 90" stroke="white" stroke-width="3" fill="none"/>
  <path d="M122 70 Q137 70 137 80 Q137 90 122 90" stroke="white" stroke-width="3" fill="none"/>
  
  <!-- Rankings bars -->
  <rect x="60" y="45" width="8" height="15" fill="rgba(255,255,255,0.6)"/>
  <rect x="75" y="40" width="8" height="20" fill="rgba(255,255,255,0.8)"/>
  <rect x="90" y="35" width="8" height="25" fill="white"/>
  <rect x="105" y="40" width="8" height="20" fill="rgba(255,255,255,0.8)"/>
  <rect x="120" y="45" width="8" height="15" fill="rgba(255,255,255,0.6)"/>
</svg>
